<?xml version="1.0" encoding="utf-8"?>
<!-- Generator: Adobe Illustrator 19.0.0, SVG Export Plug-In . SVG Version: 6.00 Build 0)  -->
<svg version="1.1" xmlns="http://www.w3.org/2000/svg" xmlns:xlink="http://www.w3.org/1999/xlink" x="0px" y="0px"
	 viewBox="0 0 184 45" style="enable-background:new 0 0 184 45;" xml:space="preserve">
<style type="text/css">
	.st0{fill:#FF003E;}
	.st1{fill:#FFFFFF;}
</style>
<g id="Logo">
	<g id="XMLID_8_">
		<g id="XMLID_23_">
		</g>
		<g id="XMLID_22_">
		</g>
		<g id="XMLID_21_">
		</g>
		<g id="XMLID_20_">
		</g>
		<g id="XMLID_19_">
		</g>
		<g id="XMLID_18_">
		</g>
		<g id="XMLID_17_">
		</g>
		<g id="XMLID_16_">
		</g>
		<g id="XMLID_15_">
		</g>
		<g id="XMLID_14_">
		</g>
		<g id="XMLID_13_">
		</g>
		<g id="XMLID_12_">
		</g>
		<g id="XMLID_11_">
		</g>
		<g id="XMLID_10_">
		</g>
		<g id="XMLID_9_">
		</g>
	</g>
	<g id="XMLID_27_">
		<path id="XMLID_40_" class="st0" d="M13,10.5l3,2.4v-1.1c0-1.5,0.9-2.8,2.4-2.8h1.2c1.5,0,2.4,1.3,2.4,2.8v1.1l3-2.4V0.9
			C23,0.5,22.1,0,20.7,0h-3.5C15.9,0,15,0.5,13,0.9V10.5z"/>
		<path id="XMLID_41_" class="st0" d="M25,27.5l-3-2.4v0.2c0,1.5-0.9,2.6-2.4,2.6h-1.2c-1.5,0-2.4-1.1-2.4-2.6v-0.2l-3,2.4v9.6
			c2,0.5,3.5,0.9,5.2,0.9h1.5c1.7,0,3.3-0.4,5.3-0.9V27.5z"/>
		<path id="XMLID_42_" class="st0" d="M10.5,25l5.5-5.5v-0.9L10.5,13H0.8C0.4,15,0,16.2,0,17.7v2.5C0,21.8,0.4,23,0.9,25H10.5z"/>
		<path id="XMLID_43_" class="st0" d="M38,17.7c0-1.5-0.4-2.7-0.9-4.7h-9.6L22,18.6v0.9l5.5,5.5h9.6c0.4-2,0.9-3.2,0.9-4.7V17.7z"/>
	</g>
</g>
<g id="crosshair_credits">
	<g id="XMLID_1_">
		<g id="XMLID_2_">
			<path id="XMLID_39_" class="st1" d="M55.8,13.7c-0.1,0.8-0.3,1.5-0.7,2.1c-0.4,0.6-0.8,1.2-1.4,1.6c-0.5,0.5-1.2,0.8-1.9,1.1
				c-0.7,0.3-1.5,0.4-2.3,0.4c-0.9,0-1.7-0.2-2.5-0.5c-0.8-0.3-1.4-0.8-2-1.4c-0.5-0.6-1-1.4-1.3-2.3c-0.3-0.9-0.5-2-0.5-3.2
				s0.2-2.2,0.5-3.1c0.3-0.9,0.7-1.6,1.3-2.1c0.5-0.6,1.2-1,2-1.2c0.8-0.3,1.6-0.4,2.6-0.4c0.9,0,1.7,0.1,2.4,0.4
				c0.7,0.2,1.3,0.6,1.9,1s1,1,1.3,1.6s0.5,1.3,0.5,2.1h-3.6c-0.1-0.7-0.4-1.2-0.8-1.6c-0.5-0.4-1-0.6-1.7-0.6
				c-0.4,0-0.7,0.1-1.1,0.2C48.3,8,48,8.2,47.8,8.5c-0.2,0.3-0.4,0.7-0.6,1.2c-0.1,0.5-0.2,1.1-0.2,1.8c0,1.5,0.3,2.6,0.8,3.3
				c0.5,0.7,1.1,1.1,1.8,1.1s1.3-0.2,1.8-0.6c0.5-0.4,0.8-0.9,0.8-1.7H55.8z"/>
			<path id="XMLID_45_" class="st1" d="M56.7,18.6V5.1h3.3v1.6c0.3-0.5,0.6-0.8,0.9-1.1c0.3-0.3,0.6-0.5,1-0.6
				c0.3-0.1,0.7-0.2,1-0.3s0.7-0.1,1.1-0.1h0.5v3.6c-0.3-0.1-0.7-0.1-1-0.1c-2.2,0-3.3,1.1-3.3,3.3v7H56.7z"/>
			<path id="XMLID_47_" class="st1" d="M71.2,18.9c-1.1,0-2.1-0.2-2.9-0.5c-0.9-0.3-1.6-0.8-2.2-1.4c-0.6-0.6-1-1.4-1.4-2.2
				c-0.3-0.9-0.5-1.8-0.5-2.9c0-1.1,0.2-2,0.5-2.9c0.3-0.9,0.8-1.6,1.4-2.2c0.6-0.6,1.3-1.1,2.2-1.4c0.8-0.3,1.8-0.5,2.9-0.5
				c1.1,0,2,0.2,2.8,0.5c0.8,0.3,1.6,0.8,2.1,1.4c0.6,0.6,1,1.4,1.4,2.2c0.3,0.9,0.5,1.8,0.5,2.9s-0.2,2-0.5,2.9
				c-0.3,0.9-0.8,1.6-1.4,2.2c-0.6,0.6-1.3,1.1-2.2,1.4C73.2,18.7,72.3,18.9,71.2,18.9z M71.2,15.9c2.2,0,3.3-1.4,3.3-4.1
				c0-2.7-1.1-4.1-3.3-4.1c-2.2,0-3.3,1.4-3.3,4.1C68,14.6,69.1,15.9,71.2,15.9z"/>
			<path id="XMLID_50_" class="st1" d="M87.3,9.2c-0.1-0.6-0.3-1.1-0.7-1.4c-0.4-0.3-0.9-0.4-1.7-0.4c-0.7,0-1.3,0.1-1.7,0.3
				c-0.4,0.2-0.6,0.5-0.6,0.9c0,0.4,0.2,0.7,0.6,0.9c0.4,0.2,0.9,0.4,1.6,0.6c1.2,0.3,2.1,0.6,3,0.8c0.8,0.2,1.4,0.5,1.9,0.8
				c0.5,0.3,0.8,0.7,1,1.2c0.2,0.5,0.3,1.1,0.3,1.9c0,1.2-0.5,2.2-1.5,3c-1,0.8-2.5,1.2-4.5,1.2c-1,0-1.8-0.1-2.6-0.3
				c-0.8-0.2-1.5-0.5-2-0.9c-0.6-0.4-1-0.9-1.3-1.5c-0.3-0.6-0.5-1.2-0.5-1.9h3.7c0,0.6,0.3,1.1,0.8,1.5s1.2,0.5,2,0.5
				c0.7,0,1.3-0.1,1.7-0.3c0.5-0.2,0.7-0.5,0.7-1c0-0.5-0.2-0.8-0.5-1.1s-0.9-0.4-1.6-0.6c-1.3-0.3-2.4-0.6-3.2-0.9
				c-0.8-0.3-1.4-0.7-1.9-1.1s-0.7-0.8-0.9-1.3c-0.2-0.5-0.2-1-0.2-1.5c0-0.5,0.1-1,0.3-1.4c0.2-0.5,0.5-0.9,1-1.2s1-0.6,1.8-0.8
				C83.1,4.9,84,4.8,85,4.8c1.9,0,3.3,0.4,4.2,1.2c0.9,0.8,1.4,1.9,1.5,3.3H87.3z"/>
			<path id="XMLID_52_" class="st1" d="M100.1,9.2c-0.1-0.6-0.3-1.1-0.7-1.4c-0.4-0.3-0.9-0.4-1.7-0.4c-0.7,0-1.3,0.1-1.7,0.3
				c-0.4,0.2-0.6,0.5-0.6,0.9c0,0.4,0.2,0.7,0.6,0.9c0.4,0.2,0.9,0.4,1.6,0.6c1.2,0.3,2.1,0.6,3,0.8c0.8,0.2,1.4,0.5,1.9,0.8
				c0.5,0.3,0.8,0.7,1,1.2c0.2,0.5,0.3,1.1,0.3,1.9c0,1.2-0.5,2.2-1.5,3c-1,0.8-2.5,1.2-4.5,1.2c-1,0-1.8-0.1-2.6-0.3
				c-0.8-0.2-1.5-0.5-2-0.9c-0.6-0.4-1-0.9-1.3-1.5c-0.3-0.6-0.5-1.2-0.5-1.9h3.7c0,0.6,0.3,1.1,0.8,1.5s1.2,0.5,2,0.5
				c0.7,0,1.3-0.1,1.7-0.3c0.5-0.2,0.7-0.5,0.7-1c0-0.5-0.2-0.8-0.5-1.1s-0.9-0.4-1.6-0.6c-1.3-0.3-2.4-0.6-3.2-0.9
				c-0.8-0.3-1.4-0.7-1.9-1.1s-0.7-0.8-0.9-1.3c-0.2-0.5-0.2-1-0.2-1.5c0-0.5,0.1-1,0.3-1.4c0.2-0.5,0.5-0.9,1-1.2s1-0.6,1.8-0.8
				c0.7-0.2,1.6-0.3,2.7-0.3c1.9,0,3.3,0.4,4.2,1.2c0.9,0.8,1.4,1.9,1.5,3.3H100.1z"/>
			<path id="XMLID_54_" class="st1" d="M113.4,18.6v-8.3c0-1-0.2-1.7-0.5-2.1c-0.4-0.4-0.9-0.6-1.8-0.6c-0.4,0-0.8,0.1-1.2,0.3
				c-0.3,0.2-0.6,0.4-0.9,0.7c-0.2,0.3-0.4,0.6-0.5,1c-0.1,0.4-0.2,0.8-0.2,1.3v7.7h-3.6V0.2h3.6v6.7c0.1-0.3,0.3-0.6,0.6-0.8
				c0.3-0.3,0.6-0.5,0.9-0.7c0.3-0.2,0.7-0.3,1.1-0.4c0.4-0.1,0.9-0.2,1.3-0.2c1.4,0,2.5,0.4,3.4,1.1c0.9,0.8,1.3,1.8,1.3,3.2v9.5
				H113.4z"/>
			<path id="XMLID_56_" class="st1" d="M126.8,18.6c-0.1-0.3-0.2-0.7-0.2-1.2c-0.4,0.5-1,0.9-1.7,1.1s-1.5,0.4-2.4,0.4
				c-1.5,0-2.7-0.3-3.4-1c-0.7-0.7-1.1-1.6-1.1-2.7c0-1,0.2-1.7,0.5-2.3c0.3-0.6,0.7-1,1.3-1.4s1.2-0.6,2-0.7
				c0.8-0.2,1.6-0.3,2.5-0.4c0.9-0.1,1.5-0.3,1.8-0.5c0.3-0.2,0.5-0.6,0.5-1c0-0.4-0.2-0.8-0.6-1c-0.4-0.2-1-0.4-1.7-0.4
				c-0.8,0-1.4,0.2-1.8,0.5c-0.4,0.4-0.6,0.8-0.7,1.4h-3.3c0-0.7,0.1-1.3,0.3-1.9c0.2-0.6,0.5-1.1,1-1.5c0.5-0.4,1.1-0.7,1.8-1
				c0.7-0.2,1.7-0.3,2.7-0.3c1.1,0,2,0.1,2.7,0.4c0.7,0.2,1.3,0.6,1.8,1c0.4,0.4,0.8,1,1,1.7c0.2,0.7,0.3,1.4,0.3,2.3v8.5H126.8z
				 M126.5,12c-0.2,0.2-0.4,0.3-0.8,0.4c-0.3,0.1-0.8,0.2-1.5,0.4c-1,0.2-1.7,0.5-2.1,0.8c-0.4,0.3-0.6,0.8-0.6,1.3
				c0,1,0.6,1.5,1.7,1.5c0.5,0,0.9-0.1,1.3-0.2c0.4-0.2,0.7-0.4,1-0.6c0.3-0.3,0.5-0.6,0.7-0.9c0.2-0.4,0.3-0.7,0.3-1.1L126.5,12z"
				/>
			<path id="XMLID_59_" class="st1" d="M131.6,3.5V0.2h3.6v3.3H131.6z M131.6,18.6V5.1h3.6v13.4H131.6z"/>
			<path id="XMLID_62_" class="st1" d="M136.6,18.6V5.1h3.3v1.6c0.3-0.5,0.6-0.8,0.9-1.1c0.3-0.3,0.6-0.5,1-0.6
				c0.3-0.1,0.7-0.2,1-0.3c0.3,0,0.7-0.1,1.1-0.1h0.5v3.6c-0.3-0.1-0.7-0.1-1-0.1c-2.2,0-3.3,1.1-3.3,3.3v7H136.6z"/>
		</g>
		<g id="XMLID_3_">
			<path id="XMLID_5_" class="st1" d="M55.8,33.1c-0.1,0.8-0.3,1.5-0.7,2.1c-0.4,0.6-0.8,1.2-1.4,1.6c-0.5,0.5-1.2,0.8-1.9,1.1
				c-0.7,0.3-1.5,0.4-2.3,0.4c-0.9,0-1.7-0.2-2.5-0.5c-0.8-0.3-1.4-0.8-2-1.4c-0.5-0.6-1-1.4-1.3-2.3c-0.3-0.9-0.5-2-0.5-3.2
				c0-1.2,0.1-2.2,0.5-3.1c0.3-0.9,0.7-1.6,1.3-2.1c0.5-0.6,1.2-1,2-1.2c0.8-0.3,1.6-0.4,2.6-0.4c0.9,0,1.7,0.1,2.4,0.4
				c0.7,0.2,1.3,0.6,1.9,1c0.5,0.5,1,1,1.3,1.6c0.3,0.6,0.5,1.3,0.5,2.1h-3.6c-0.1-0.7-0.4-1.2-0.8-1.6c-0.5-0.4-1-0.6-1.7-0.6
				c-0.4,0-0.7,0.1-1.1,0.2c-0.3,0.1-0.6,0.3-0.9,0.6s-0.4,0.7-0.6,1.2C47.1,29.7,47,30.3,47,31c0,1.5,0.3,2.6,0.8,3.3
				c0.5,0.7,1.1,1.1,1.8,1.1s1.3-0.2,1.8-0.6c0.5-0.4,0.8-0.9,0.8-1.7H55.8z"/>
			<path id="XMLID_7_" class="st1" d="M56.7,38V24.6h3.3v1.6c0.3-0.5,0.6-0.8,0.9-1.1c0.3-0.3,0.6-0.5,1-0.6c0.3-0.1,0.7-0.2,1-0.3
				c0.3,0,0.7-0.1,1.1-0.1h0.5v3.6c-0.3-0.1-0.7-0.1-1-0.1c-2.2,0-3.3,1.1-3.3,3.3v7H56.7z"/>
			<path id="XMLID_25_" class="st1" d="M67.9,32.2c0.1,1,0.4,1.8,0.9,2.4c0.5,0.6,1.2,0.9,2.1,0.9c0.6,0,1.1-0.1,1.5-0.4
				c0.4-0.3,0.7-0.6,0.9-1.1h3.7c-0.4,1.4-1.1,2.5-2.2,3.2c-1,0.7-2.3,1.1-3.7,1.1c-4.5,0-6.7-2.4-6.7-7.3c0-1,0.1-2,0.4-2.8
				s0.7-1.6,1.3-2.2c0.6-0.6,1.2-1.1,2-1.4c0.8-0.3,1.7-0.5,2.8-0.5c2.1,0,3.6,0.7,4.7,2s1.6,3.3,1.6,6H67.9z M73.5,30
				c0-0.5-0.1-0.9-0.3-1.3s-0.4-0.7-0.6-0.9c-0.3-0.2-0.5-0.4-0.9-0.5c-0.3-0.1-0.7-0.2-1-0.2c-0.7,0-1.3,0.3-1.8,0.8
				C68.3,28.3,68.1,29,68,30H73.5z"/>
			<path id="XMLID_29_" class="st1" d="M87.5,38l0-1.6c-0.8,1.3-2.1,2-3.7,2c-0.9,0-1.6-0.2-2.4-0.5s-1.3-0.8-1.8-1.4
				c-0.5-0.6-0.9-1.4-1.2-2.3c-0.3-0.9-0.4-1.9-0.4-3c0-1,0.1-2,0.4-2.8s0.6-1.6,1.1-2.2c0.5-0.6,1.1-1.1,1.7-1.4s1.5-0.5,2.3-0.5
				c1.7,0,3,0.7,4,2.1v-6.7H91V38H87.5z M84.6,35.5c0.9,0,1.6-0.4,2.1-1.1c0.6-0.7,0.9-1.6,0.9-2.8c0-2.9-1-4.4-3-4.4
				c-2,0-3.1,1.4-3.1,4.2c0,1.2,0.3,2.2,0.8,2.9C83,35.1,83.7,35.5,84.6,35.5z"/>
			<path id="XMLID_32_" class="st1" d="M92.5,22.9v-3.3H96v3.3H92.5z M92.5,38V24.6H96V38H92.5z"/>
			<path id="XMLID_35_" class="st1" d="M105.1,29.1h3.3V33c0,0.7-0.1,1.4-0.3,2c-0.2,0.6-0.5,1.2-1,1.7c-0.4,0.5-1,0.9-1.7,1.2
				c-0.7,0.3-1.5,0.4-2.4,0.4c-1,0-1.8-0.1-2.5-0.4s-1.3-0.7-1.7-1.2c-0.4-0.5-0.8-1.1-1-1.7c-0.2-0.7-0.3-1.3-0.3-2.1v-12h3.5v3.6
				h7.4v2.5H101v5.5c0,0.9,0.2,1.5,0.5,2c0.3,0.5,0.8,0.7,1.6,0.7c0.7,0,1.2-0.2,1.6-0.7s0.5-1.1,0.5-1.9V29.1z"/>
			<path id="XMLID_37_" class="st1" d="M117.8,28.6c-0.1-0.6-0.3-1.1-0.7-1.4c-0.4-0.3-0.9-0.4-1.7-0.4c-0.7,0-1.3,0.1-1.7,0.3
				c-0.4,0.2-0.6,0.5-0.6,0.9c0,0.4,0.2,0.7,0.6,0.9c0.4,0.2,0.9,0.4,1.6,0.6c1.2,0.3,2.1,0.6,3,0.8s1.4,0.5,1.9,0.8s0.8,0.7,1,1.2
				c0.2,0.5,0.3,1.1,0.3,1.9c0,1.2-0.5,2.2-1.5,3c-1,0.8-2.5,1.2-4.5,1.2c-1,0-1.8-0.1-2.6-0.3s-1.5-0.5-2-0.9
				c-0.6-0.4-1-0.9-1.3-1.5c-0.3-0.6-0.5-1.2-0.5-1.9h3.7c0,0.6,0.3,1.1,0.8,1.5c0.5,0.3,1.2,0.5,2,0.5c0.7,0,1.3-0.1,1.7-0.3
				c0.5-0.2,0.7-0.5,0.7-1c0-0.5-0.2-0.8-0.5-1.1c-0.4-0.2-0.9-0.4-1.6-0.6c-1.3-0.3-2.4-0.6-3.2-0.9c-0.8-0.3-1.4-0.7-1.9-1.1
				s-0.7-0.8-0.9-1.3c-0.2-0.5-0.2-1-0.2-1.5c0-0.5,0.1-1,0.3-1.4c0.2-0.5,0.5-0.9,1-1.2c0.5-0.3,1-0.6,1.8-0.8
				c0.7-0.2,1.6-0.3,2.7-0.3c1.9,0,3.3,0.4,4.2,1.2s1.4,1.9,1.5,3.3H117.8z"/>
		</g>
	</g>
	<g id="XMLID_4_">
	</g>
	<g id="XMLID_64_">
	</g>
	<g id="XMLID_65_">
	</g>
	<g id="XMLID_66_">
	</g>
	<g id="XMLID_67_">
	</g>
	<g id="XMLID_68_">
	</g>
	<g id="XMLID_69_">
	</g>
	<g id="XMLID_70_">
	</g>
	<g id="XMLID_71_">
	</g>
	<g id="XMLID_72_">
	</g>
	<g id="XMLID_73_">
	</g>
	<g id="XMLID_74_">
	</g>
	<g id="XMLID_75_">
	</g>
	<g id="XMLID_76_">
	</g>
	<g id="XMLID_77_">
	</g>
</g>
</svg>
